<?xml version="1.0" encoding="utf-8"?>
<!-- Generator: Adobe Illustrator 23.0.0, SVG Export Plug-In . SVG Version: 6.00 Build 0)  -->
<svg version="1.1" id="Layer_1" xmlns="http://www.w3.org/2000/svg" xmlns:xlink="http://www.w3.org/1999/xlink" x="0px" y="0px"
	 width="72.4px" height="45px" viewBox="0 0 72.4 45" style="enable-background:new 0 0 72.4 45;" xml:space="preserve">
<style type="text/css">
	.st0{fill:url(#SVGID_1_);}
	.st1{fill:url(#SVGID_2_);}
	.st2{fill:url(#SVGID_3_);}
	.st3{fill:url(#SVGID_4_);}
	.st4{fill:url(#SVGID_5_);}
	.st5{fill:url(#SVGID_6_);}
	.st6{fill:url(#SVGID_7_);}
	.st7{fill:url(#SVGID_8_);}
</style>
<g>
	
		<linearGradient id="SVGID_1_" gradientUnits="userSpaceOnUse" x1="159.1515" y1="-302.8335" x2="159.1515" y2="-331.8612" gradientTransform="matrix(-1 0 0 -1 172.0879 -294.3994)">
		<stop  offset="0" style="stop-color:#3EA136"/>
		<stop  offset="1" style="stop-color:#6CB52E"/>
	</linearGradient>
	<path class="st0" d="M22.9,42.5c0,0-19.1-8.8-19.9-39.6C3,2.9,21,4,22.9,42.5z"/>
	
		<linearGradient id="SVGID_2_" gradientUnits="userSpaceOnUse" x1="337.7009" y1="-299.5968" x2="353.0854" y2="-329.8165" gradientTransform="matrix(1 0 0 -1 -336.7246 -294.3994)">
		<stop  offset="0" style="stop-color:#3EA136"/>
		<stop  offset="1" style="stop-color:#9DC41C"/>
	</linearGradient>
	<path class="st1" d="M22.9,42.1c0,0.1,0,0.2,0,0.4c0,0-20.6-9.4-19.9-39.6C6.2,5.4,21.2,38.5,22.9,42.1z"/>
	
		<linearGradient id="SVGID_3_" gradientUnits="userSpaceOnUse" x1="134.1074" y1="-300.1298" x2="148.5304" y2="-328.1516" gradientTransform="matrix(-1 0 0 -1 172.0879 -294.3994)">
		<stop  offset="0" style="stop-color:#3AA4DB"/>
		<stop  offset="1" style="stop-color:#7ACDF4"/>
	</linearGradient>
	<path class="st2" d="M36.2,2.5c0,0,6.9,18.8-13.2,40C23,42.5,11.7,29.7,36.2,2.5z"/>
	
		<linearGradient id="SVGID_4_" gradientUnits="userSpaceOnUse" x1="55.8321" y1="-326.3694" x2="67.2332" y2="-296.9738" gradientTransform="matrix(1 0 0 -1 -27.5 -294.3994)">
		<stop  offset="0.1502" style="stop-color:#9AD7F3"/>
		<stop  offset="1" style="stop-color:#006F9F"/>
	</linearGradient>
	<path class="st3" d="M23,42.5c0,0,10.1-25.9,13.2-40C36.2,2.5,43.2,21.3,23,42.5z"/>
	
		<linearGradient id="SVGID_5_" gradientUnits="userSpaceOnUse" x1="122.3037" y1="-333.4926" x2="133.7048" y2="-304.097" gradientTransform="matrix(-1 0 0 -1 172.0879 -294.3994)">
		<stop  offset="0" style="stop-color:#5A267B"/>
		<stop  offset="1" style="stop-color:#765495"/>
	</linearGradient>
	<path class="st4" d="M36.3,2.5c0,0-6.9,18.8,13.2,40C49.5,42.5,60.8,29.7,36.3,2.5z"/>
	
		<linearGradient id="SVGID_6_" gradientUnits="userSpaceOnUse" x1="124.8426" y1="-334.4739" x2="136.2555" y2="-305.048" gradientTransform="matrix(-1 0 0 -1 172.0879 -294.3994)">
		<stop  offset="0" style="stop-color:#5A267B"/>
		<stop  offset="1" style="stop-color:#BA98C7"/>
	</linearGradient>
	<path class="st5" d="M49.5,42.5c0,0-10.2-25.9-13.3-40C36.2,2.5,29.3,21.3,49.5,42.5z"/>
	
		<linearGradient id="SVGID_7_" gradientUnits="userSpaceOnUse" x1="103.5982" y1="-298.1147" x2="118.9827" y2="-328.3344" gradientTransform="matrix(-1 0 0 -1 172.0879 -294.3994)">
		<stop  offset="0" style="stop-color:#D5338B"/>
		<stop  offset="1" style="stop-color:#EA69A1"/>
	</linearGradient>
	<path class="st6" d="M49.5,42.5c0,0,19.1-8.8,19.9-39.6C69.4,2.9,51.4,4,49.5,42.5z"/>
	
		<linearGradient id="SVGID_8_" gradientUnits="userSpaceOnUse" x1="100.7712" y1="-299.5539" x2="116.1557" y2="-329.7736" gradientTransform="matrix(-1 0 0 -1 172.0879 -294.3994)">
		<stop  offset="0" style="stop-color:#D5338B"/>
		<stop  offset="1" style="stop-color:#F1A1C6"/>
	</linearGradient>
	<path class="st7" d="M49.5,42.1c0,0.1,0,0.2,0,0.4c0,0,20.5-10.1,19.9-39.6C66.2,5.4,51.2,38.5,49.5,42.1z"/>
</g>
</svg>
